# xmcd
# 
# Track frame offsets:
#     150
#     32860
#     60662
#     95475
#     126825
#     158902
#     177515
#     206795
#     247595
#     265215
#     286402
#     308555
# 
# Disc length: 4439
# 
# Revision: 0
# Processed by: cddbd v1.5.2PL0 Copyright (c) Steve Scherf et al.
# Submitted via: fre:ac v1.0.31
# 
DISCID=a711550c
DTITLE=KOKIA - ALIVE_Disc1
DYEAR=2019
DGENRE=JPop
TTITLE0=ありがとう…
TTITLE1=最終上映
TTITLE2=Family Tree
TTITLE3=ぴんくの象
TTITLE4=tomoni
TTITLE5=カバ ～マダムヒッポの夢～
TTITLE6=il mare dei suoni
TTITLE7=愛はこだまする
TTITLE8=お化けが怖いなんて
TTITLE9=Everytime We Say Goodbye
TTITLE10=歌う人
TTITLE11=The woman
EXTD=
EXTT0=
EXTT1=
EXTT2=
EXTT3=
EXTT4=
EXTT5=
EXTT6=
EXTT7=
EXTT8=
EXTT9=
EXTT10=
EXTT11=
PLAYORDER=
